HIERARCHY
ROOT joint_0
{
	OFFSET 0.000000 0.000000 0.000000
	CHANNELS 6 Xposition Yposition Zposition Zrotation Yrotation Xrotation 
	JOINT joint_1
	{
		OFFSET 6.579712 -2.778931 100.531982
		CHANNELS 3 Zrotation Yrotation Xrotation
		JOINT joint_2
		{
			OFFSET -3.313232 -1.302856 91.974976
			CHANNELS 3 Zrotation Yrotation Xrotation
			JOINT joint_3
			{
				OFFSET -3.421509 -1.641846 91.864014
				CHANNELS 3 Zrotation Yrotation Xrotation
				JOINT joint_4
				{
					OFFSET 7.697388 -4.642578 123.278931
					CHANNELS 3 Zrotation Yrotation Xrotation
					JOINT joint_5
					{
						OFFSET 24.842529 -5.941528 79.695068
						CHANNELS 3 Zrotation Yrotation Xrotation
						End Site
						{
							OFFSET 0.000000 0.000000 0.000000
						}
					}
				}
				JOINT joint_6
				{
					OFFSET -0.159668 -29.112976 68.364014
					CHANNELS 3 Zrotation Yrotation Xrotation
					JOINT joint_7
					{
						OFFSET -18.356079 -115.987061 -20.069092
						CHANNELS 3 Zrotation Yrotation Xrotation
						JOINT joint_8
						{
							OFFSET 31.719482 -11.733276 -267.170898
							CHANNELS 3 Zrotation Yrotation Xrotation
							JOINT joint_9
							{
								OFFSET 29.329956 -5.879517 -234.654053
								CHANNELS 3 Zrotation Yrotation Xrotation
								End Site
								{
									OFFSET 0.000000 0.000000 0.000000
								}
							}
						}
					}
				}
				JOINT joint_10
				{
					OFFSET 8.802979 23.897949 69.798950
					CHANNELS 3 Zrotation Yrotation Xrotation
					JOINT joint_11
					{
						OFFSET 21.159058 115.524292 -19.981934
						CHANNELS 3 Zrotation Yrotation Xrotation
						JOINT joint_12
						{
							OFFSET 18.809204 5.403442 -268.593018
							CHANNELS 3 Zrotation Yrotation Xrotation
							JOINT joint_13
							{
								OFFSET 20.807861 0.421265 -235.639038
								CHANNELS 3 Zrotation Yrotation Xrotation
								End Site
								{
									OFFSET 0.000000 0.000000 0.000000
								}
							}
						}
					}
				}
			}
		}
	}
	JOINT joint_14
	{
		OFFSET -9.713379 -79.513916 -99.348022
		CHANNELS 3 Zrotation Yrotation Xrotation
		JOINT joint_15
		{
			OFFSET -40.607788 -6.518372 -502.938019
			CHANNELS 3 Zrotation Yrotation Xrotation
			JOINT joint_16
			{
				OFFSET -19.807617 -7.437378 -399.590012
				CHANNELS 3 Zrotation Yrotation Xrotation
				JOINT joint_17
				{
					OFFSET 171.701660 -44.751282 -77.782000
					CHANNELS 3 Zrotation Yrotation Xrotation
					End Site
					{
						OFFSET 0.000000 0.000000 0.000000
					}
				}
			}
		}
	}
	JOINT joint_18
	{
		OFFSET 17.854858 79.618652 -98.128052
		CHANNELS 3 Zrotation Yrotation Xrotation
		JOINT joint_19
		{
			OFFSET -24.848877 16.861816 -503.722992
			CHANNELS 3 Zrotation Yrotation Xrotation
			JOINT joint_20
			{
				OFFSET -30.162476 14.470093 -398.750008
				CHANNELS 3 Zrotation Yrotation Xrotation
				JOINT joint_21
				{
					OFFSET 176.096680 -10.987549 -80.021000
					CHANNELS 3 Zrotation Yrotation Xrotation
					End Site
					{
						OFFSET 0.000000 0.000000 0.000000
					}
				}
			}
		}
	}
}
MOTION
Frames: 18
Frame Time: 0.016667
-2328.062500 813.723938 1094.329956 4.195262 1.760346 0.882489 -0.837287 -3.355671 -1.411610 -0.737162 0.510593 0.187507 -0.775742 -0.698211 -0.225998 -0.150490 -0.593189 0.337332 0.000000 0.000000 0.000000 2.231489 3.733948 0.724896 -0.158769 4.207518 0.395075 -0.302362 -0.885346 -2.545272 0.000000 0.000000 0.000000 0.863404 0.915107 0.561004 -0.068280 1.322110 -2.540789 0.303563 -1.977982 3.668480 0.000000 0.000000 0.000000 0.114483 0.800798 -3.077659 -0.344727 1.189938 2.634567 -0.068195 -3.538438 -0.952545 0.000000 0.000000 0.000000 0.562606 1.758983 2.002021 0.677795 -0.427883 -1.373056 0.522181 -1.621876 0.134331 0.000000 0.000000 0.000000 
-2328.183350 813.755249 1094.305054 4.144758 1.731806 0.863189 -0.842421 -3.389975 -1.410169 -0.741703 0.514486 0.185443 -0.780335 -0.704025 -0.225144 -0.169802 -0.593477 0.399063 0.000000 0.000000 0.000000 2.249520 3.743395 0.726660 -0.163096 4.225607 0.366356 -0.302923 -0.879954 -2.548985 0.000000 0.000000 0.000000 0.885986 0.938626 0.564793 -0.065245 1.336421 -2.505288 0.305337 -1.953174 3.685273 0.000000 0.000000 0.000000 0.124521 0.829603 -3.070789 -0.334367 1.165855 2.646456 -0.058724 -3.514280 -0.941986 0.000000 0.000000 0.000000 0.576138 1.781518 2.015771 0.691651 -0.405636 -1.365013 0.534365 -1.652615 0.137913 0.000000 0.000000 0.000000 
-2328.317383 813.777161 1094.279053 4.091297 1.704934 0.843339 -0.846812 -3.423807 -1.408922 -0.745536 0.518709 0.182920 -0.784202 -0.709481 -0.224292 -0.190027 -0.594099 0.463623 0.000000 0.000000 0.000000 2.269172 3.750161 0.727924 -0.167987 4.242172 0.332133 -0.303640 -0.871740 -2.553333 0.000000 0.000000 0.000000 0.909620 0.964733 0.568128 -0.062436 1.353520 -2.472528 0.308223 -1.913159 3.714641 0.000000 0.000000 0.000000 0.134980 0.855301 -3.063652 -0.323591 1.141901 2.657854 -0.048955 -3.487546 -0.930623 0.000000 0.000000 0.000000 0.590583 1.802220 2.029810 0.706391 -0.384051 -1.355655 0.547494 -1.684377 0.141856 0.000000 0.000000 0.000000 
-2328.469971 813.783997 1094.254028 4.040049 1.677985 0.823370 -0.850507 -3.449014 -1.405261 -0.748937 0.522378 0.179370 -0.787507 -0.713315 -0.222086 -0.208877 -0.601526 0.522118 0.000000 0.000000 0.000000 2.283029 3.754765 0.730317 -0.173553 4.256860 0.291624 -0.303583 -0.870484 -2.553105 0.000000 0.000000 0.000000 0.926619 0.991280 0.571069 -0.059749 1.372362 -2.441120 0.311304 -1.867535 3.745888 0.000000 0.000000 0.000000 0.145115 0.879559 -3.055885 -0.313244 1.119120 2.670576 -0.039482 -3.461525 -0.919579 0.000000 0.000000 0.000000 0.604404 1.821045 2.045790 0.720803 -0.361598 -1.348293 0.560171 -1.714995 0.145669 0.000000 0.000000 0.000000 
-2328.647949 813.774048 1094.228027 3.990857 1.649762 0.802298 -0.853416 -3.459100 -1.397998 -0.751911 0.522874 0.177063 -0.790301 -0.712873 -0.220073 -0.226151 -0.621634 0.572485 0.000000 0.000000 0.000000 2.290000 3.755953 0.735899 -0.180520 4.269567 0.239245 -0.301858 -0.884681 -2.543046 0.000000 0.000000 0.000000 0.934448 1.016755 0.573879 -0.057100 1.391570 -2.409048 0.314173 -1.817289 3.773940 0.000000 0.000000 0.000000 0.155515 0.902123 -3.046682 -0.302806 1.100436 2.685645 -0.029615 -3.438280 -0.909082 0.000000 0.000000 0.000000 0.617330 1.838491 2.065701 0.734819 -0.337492 -1.344423 0.572192 -1.744579 0.149250 0.000000 0.000000 0.000000 
-2328.845459 813.749939 1094.203979 3.944288 1.621644 0.781234 -0.854713 -3.460477 -1.388179 -0.753529 0.522970 0.173998 -0.791676 -0.711158 -0.217965 -0.242622 -0.648383 0.618673 0.000000 0.000000 0.000000 2.287767 3.755295 0.744040 -0.188241 4.280467 0.179964 -0.299470 -0.906392 -2.529347 0.000000 0.000000 0.000000 0.933401 1.042162 0.576192 -0.054557 1.412238 -2.377517 0.317175 -1.760345 3.803149 0.000000 0.000000 0.000000 0.165643 0.922985 -3.037139 -0.292797 1.083138 2.702198 -0.020036 -3.415643 -0.898874 0.000000 0.000000 0.000000 0.629298 1.853698 2.087534 0.748203 -0.312466 -1.342810 0.583462 -1.772553 0.152594 0.000000 0.000000 0.000000 
-2329.045410 813.710510 1094.186035 3.904664 1.595925 0.761122 -0.857223 -3.461973 -1.377559 -0.756377 0.522877 0.171327 -0.794296 -0.709690 -0.215788 -0.256951 -0.675516 0.657913 0.000000 0.000000 0.000000 2.285177 3.756147 0.749141 -0.194608 4.290466 0.131058 -0.298017 -0.922360 -2.521681 0.000000 0.000000 0.000000 0.931368 1.069986 0.580067 -0.052322 1.436669 -2.351135 0.320274 -1.703413 3.833812 0.000000 0.000000 0.000000 0.173180 0.943664 -3.026064 -0.285055 1.061066 2.717285 -0.012926 -3.390254 -0.889062 0.000000 0.000000 0.000000 0.639403 1.864944 2.110081 0.759939 -0.287474 -1.342394 0.593127 -1.798245 0.155356 0.000000 0.000000 0.000000 
-2329.239502 813.653564 1094.181030 3.874878 1.572733 0.742223 -0.860393 -3.467199 -1.366480 -0.759761 0.525115 0.169904 -0.797667 -0.711152 -0.215397 -0.269064 -0.698117 0.691145 0.000000 0.000000 0.000000 2.276913 3.760924 0.749343 -0.198500 4.299129 0.101657 -0.298553 -0.927958 -2.527353 0.000000 0.000000 0.000000 0.922089 1.102105 0.586952 -0.050309 1.468132 -2.330042 0.323392 -1.648389 3.864943 0.000000 0.000000 0.000000 0.177004 0.966602 -3.012568 -0.280380 1.030039 2.728977 -0.009352 -3.359069 -0.879332 0.000000 0.000000 0.000000 0.646404 1.871488 2.132925 0.768805 -0.260763 -1.342268 0.599987 -1.822226 0.156959 0.000000 0.000000 0.000000 
-2329.437012 813.581238 1094.182983 3.852124 1.551924 0.724737 -0.863539 -3.471962 -1.355120 -0.763140 0.526882 0.168478 -0.801026 -0.713501 -0.214596 -0.279394 -0.721425 0.718492 0.000000 0.000000 0.000000 2.263602 3.767883 0.746918 -0.201029 4.306815 0.082657 -0.300161 -0.927993 -2.540218 0.000000 0.000000 0.000000 0.908363 1.136298 0.595065 -0.048595 1.503502 -2.313804 0.326610 -1.592437 3.897493 0.000000 0.000000 0.000000 0.178279 0.989308 -2.998098 -0.277986 0.994332 2.739280 -0.008255 -3.325145 -0.870004 0.000000 0.000000 0.000000 0.651400 1.873911 2.155934 0.775857 -0.233843 -1.343150 0.605096 -1.843564 0.157937 0.000000 0.000000 0.000000 
-2329.641357 813.507141 1094.182983 3.831940 1.537717 0.710174 -0.865916 -3.483001 -1.343235 -0.765682 0.528691 0.167661 -0.803580 -0.715393 -0.214157 -0.287997 -0.740768 0.741279 0.000000 0.000000 0.000000 2.252742 3.776755 0.746405 -0.203805 4.317490 0.061836 -0.301538 -0.925537 -2.550775 0.000000 0.000000 0.000000 0.901305 1.170391 0.598837 -0.047209 1.537377 -2.300905 0.329984 -1.536485 3.932829 0.000000 0.000000 0.000000 0.179938 1.004973 -2.986853 -0.275703 0.957935 2.751397 -0.007137 -3.292240 -0.860932 0.000000 0.000000 0.000000 0.655224 1.870159 2.177581 0.781857 -0.211270 -1.347471 0.609225 -1.861077 0.158712 0.000000 0.000000 0.000000 
-2329.856934 813.435852 1094.180054 3.812898 1.535433 0.700004 -0.866481 -3.505873 -1.329781 -0.766437 0.530362 0.163942 -0.804206 -0.718180 -0.212504 -0.294768 -0.753389 0.759850 0.000000 0.000000 0.000000 2.243799 3.789170 0.749485 -0.207583 4.333878 0.034262 -0.301960 -0.925634 -2.554410 0.000000 0.000000 0.000000 0.904398 1.203959 0.597206 -0.046265 1.568649 -2.292081 0.333665 -1.478397 3.973016 0.000000 0.000000 0.000000 0.183122 1.006567 -2.981422 -0.272851 0.922358 2.766972 -0.005195 -3.260928 -0.851902 0.000000 0.000000 0.000000 0.658114 1.855719 2.196494 0.787030 -0.196245 -1.356444 0.612726 -1.871233 0.159664 0.000000 0.000000 0.000000 
-2330.079346 813.362793 1094.175049 3.795704 1.539673 0.693060 -0.865417 -3.534210 -1.316569 -0.765494 0.530983 0.160856 -0.803109 -0.720733 -0.210094 -0.299235 -0.762126 0.771989 0.000000 0.000000 0.000000 2.234531 3.804175 0.753683 -0.211558 4.353236 0.005379 -0.302263 -0.923611 -2.556645 0.000000 0.000000 0.000000 0.911790 1.237499 0.590306 -0.045609 1.598641 -2.286023 0.337491 -1.419953 4.015823 0.000000 0.000000 0.000000 0.186808 1.000958 -2.979672 -0.270051 0.886493 2.784541 -0.003141 -3.231125 -0.843214 0.000000 0.000000 0.000000 0.660093 1.835470 2.213645 0.791367 -0.185973 -1.368831 0.615478 -1.877283 0.160536 0.000000 0.000000 0.000000 
-2330.304688 813.287476 1094.163940 3.783984 1.537877 0.686290 -0.864558 -3.554476 -1.299791 -0.765001 0.530623 0.157013 -0.802370 -0.720818 -0.207822 -0.302726 -0.773066 0.780475 0.000000 0.000000 0.000000 2.229283 3.816954 0.762233 -0.215328 4.371945 -0.024804 -0.303446 -0.904553 -2.562353 0.000000 0.000000 0.000000 0.922041 1.269464 0.578506 -0.045104 1.625860 -2.281173 0.341152 -1.366830 4.057563 0.000000 0.000000 0.000000 0.189770 1.002774 -2.977104 -0.267750 0.850505 2.801644 -0.001490 -3.204528 -0.835543 0.000000 0.000000 0.000000 0.660381 1.821460 2.231180 0.793859 -0.176621 -1.381150 0.616483 -1.883419 0.160613 0.000000 0.000000 0.000000 
-2330.527588 813.207397 1094.140991 3.778530 1.523838 0.679043 -0.864675 -3.560406 -1.278467 -0.765840 0.530665 0.151772 -0.802807 -0.718361 -0.203952 -0.303756 -0.790389 0.779544 0.000000 0.000000 0.000000 2.230534 3.825650 0.775403 -0.218616 4.388445 -0.055493 -0.306134 -0.861025 -2.574863 0.000000 0.000000 0.000000 0.934918 1.299762 0.560282 -0.044736 1.649989 -2.277579 0.344558 -1.320932 4.097105 0.000000 0.000000 0.000000 0.191430 1.020668 -2.972184 -0.266096 0.811855 2.816598 -0.000487 -3.182411 -0.829329 0.000000 0.000000 0.000000 0.658843 1.821340 2.250010 0.794181 -0.169369 -1.393256 0.615440 -1.890984 0.159676 0.000000 0.000000 0.000000 
-2330.751953 813.125061 1094.112061 3.778545 1.503945 0.672402 -0.865724 -3.559536 -1.255061 -0.767716 0.531806 0.147045 -0.804294 -0.715615 -0.199583 -0.302746 -0.807563 0.772130 0.000000 0.000000 0.000000 2.238104 3.832717 0.792051 -0.221723 4.405122 -0.087272 -0.309707 -0.800826 -2.590899 0.000000 0.000000 0.000000 0.953336 1.329303 0.536082 -0.044506 1.671463 -2.274967 0.347828 -1.279890 4.135927 0.000000 0.000000 0.000000 0.192430 1.046035 -2.967061 -0.264942 0.772791 2.831385 0.000138 -3.163871 -0.824218 0.000000 0.000000 0.000000 0.655569 1.827402 2.268807 0.792592 -0.163188 -1.405471 0.612585 -1.898445 0.157927 0.000000 0.000000 0.000000 
-2330.987549 813.042603 1094.083008 3.782780 1.482178 0.665087 -0.867060 -3.554727 -1.228322 -0.770103 0.530799 0.140678 -0.806146 -0.711162 -0.195012 -0.301489 -0.821091 0.764806 0.000000 0.000000 0.000000 2.246627 3.840086 0.808377 -0.224464 4.421890 -0.117323 -0.313487 -0.733473 -2.607020 0.000000 0.000000 0.000000 0.973595 1.356807 0.511462 -0.044361 1.690557 -2.272716 0.350635 -1.244545 4.169837 0.000000 0.000000 0.000000 0.193145 1.069810 -2.961045 -0.264180 0.741501 2.846898 0.000726 -3.149870 -0.820307 0.000000 0.000000 0.000000 0.651173 1.831940 2.288627 0.790175 -0.151765 -1.418049 0.608629 -1.908693 0.155507 0.000000 0.000000 0.000000 
-2331.237305 812.959656 1094.057007 3.791316 1.459614 0.657118 -0.868685 -3.549474 -1.199981 -0.772753 0.530893 0.135477 -0.808361 -0.707552 -0.190952 -0.299485 -0.827641 0.756785 0.000000 0.000000 0.000000 2.256708 3.847056 0.823002 -0.226461 4.437626 -0.144151 -0.317849 -0.649277 -2.624212 0.000000 0.000000 0.000000 0.994594 1.382518 0.485255 -0.044157 1.707057 -2.268351 0.352882 -1.213125 4.197449 0.000000 0.000000 0.000000 0.194165 1.088675 -2.954003 -0.263300 0.722412 2.862893 0.001907 -3.142167 -0.817771 0.000000 0.000000 0.000000 0.645806 1.832562 2.309462 0.787230 -0.132698 -1.431101 0.603739 -1.922575 0.152441 0.000000 0.000000 0.000000 
-2331.497803 812.876526 1094.031982 3.803965 1.435873 0.648939 -0.870405 -3.542079 -1.169303 -0.775638 0.530259 0.128903 -0.810690 -0.703281 -0.185877 -0.296851 -0.829255 0.747949 0.000000 0.000000 0.000000 2.267607 3.854734 0.837079 -0.228139 4.453837 -0.169435 -0.322435 -0.557917 -2.641557 0.000000 0.000000 0.000000 1.017059 1.406509 0.457439 -0.043993 1.721211 -2.263598 0.354665 -1.186533 4.220049 0.000000 0.000000 0.000000 0.194925 1.105097 -2.946631 -0.262863 0.711263 2.879783 0.003004 -3.138721 -0.816383 0.000000 0.000000 0.000000 0.639479 1.831013 2.330739 0.783607 -0.108370 -1.444530 0.597896 -1.939153 0.148778 0.000000 0.000000 0.000000 
